<svg width="712" height="148" xmlns="http://www.w3.org/2000/svg" xml:space="preserve" version="1.1">
 <defs>
  <linearGradient y2="1.01555" x2="0.49932" y1="-0.05126" x1="0.49932" id="SVGID_1_">
   <stop stop-color="#FFEF6D" offset="0"/>
   <stop stop-color="#FEE468" offset="0"/>
   <stop stop-color="#D9B03C" offset="0.4631"/>
   <stop stop-color="#D2A033" offset="0.8234"/>
   <stop stop-color="#C49A27" offset="1"/>
  </linearGradient>
 </defs>
 <g>
  <title>Layer 1</title>
  <g id="svg_1">
   <path id="svg_2" fill="#FFFFFF" d="m477.9,66.60001l-5.8,15c-5.7,14.7 1.2,18.2 15.1,18.2l41.1,0l5,-12.9l-36.4,0c-7.3,0 -7.7,-2.8 -4.9,-10.1l2.1,-5.4c2.4,-6.2 5.4,-10.1 13.5,-10.1l35.6,0l5,-12.9l-41.1,0c-14,0 -23.5,3.5 -29.2,18.2z" class="st0"/>
   <polygon id="svg_3" fill="#FFFFFF" points="395.6000061035156,48.70001220703125 329.79998779296875,48.70001220703125 324.79998779296875,61.70001220703125 348.1000061035156,61.70001220703125 333.5,99.39999389648438 352.6999816894531,99.39999389648438 367.29998779296875,61.70001220703125 390.5,61.70001220703125 " class="st0"/>
   <path id="svg_4" fill="#FFFFFF" d="m408.4,48.70001l0,0l-14.7,38.1l0,0l-2.4,6.3c0,0 0,0.1 0,0.1l-2.4,6.2l18.1,0l0,0l42.1,0l4.9,-12.6l-42.1,0l2.5,-6.5l42.1,0l4.9,-12.6l-42.1,0l2.5,-6.5l42.1,0l4.9,-12.6l-60.4,0.1l0,0z" class="st0"/>
   <path id="svg_5" fill="#FFFFFF" d="m130.4,48.70001l-13.4,0c-2.2,0 -4.5,1.1 -6.4,3.2l-44.1,47.5l21.7,0l30.1,-34.5c1.4,9.8 2.7,18.4 3.6,23.9c1.6,10.6 1.6,10.6 1.9,10.6l18.5,0l-7.8,-47.6c-0.5,-2 -1.9,-3.1 -4.1,-3.1z" class="st0"/>
   <path id="svg_6" fill="#FFFFFF" d="m299.6,48.70001l-13.4,0c-2.2,0 -4.5,1.1 -6.4,3.2l-44.1,47.5l21.7,0l30.1,-34.5c1.4,9.8 2.7,18.4 3.6,23.9c1.6,10.6 1.6,10.6 1.9,10.6l18.5,0l-7.8,-47.6c-0.6,-2 -1.9,-3.1 -4.1,-3.1z" class="st0"/>
   <path id="svg_7" fill="#FFFFFF" d="m224.6,48.70001l-12.4,36.2l-13.7,-33.7c-0.4,-1.1 -1.5,-2.5 -4,-2.5l-21.8,0l-19.6,50.7l18.1,0l12.4,-36.2l14.6,36l0.1,0.2l24.8,0l19.6,-50.7l-18.1,0z" class="st0"/>
   <polygon id="svg_8" fill="#FFFFFF" points="11.5,69.60000610351562 0,99.39999389648438 18.599998474121094,99.39999389648438 25.099998474121094,82.70001220703125 65.29999542236328,82.70001220703125 70.4000015258789,69.60000610351562 " class="st0"/>
   <path id="svg_9" fill="#FFFFFF" d="m82.2,48.70001l-56.5,0c-3.4,0 -7.2,2.7 -8.5,6.1l-2.9,7.6l62.6,0l5.3,-13.7z" class="st0"/>
   <path id="svg_10" fill="url(#SVGID_1_)" d="m700.5,64.10001l11.5,-12.7l-16.7,0l-8.4,0l-19.3,0l-29.3,33.5l12.4,0.2c13.7,0.2 24.9,11.5 24.9,25.3c0,13.9 -11.3,25.3 -25.3,25.3l-39,0l7.8,-9l31.4,0c6.9,0 13.4,-4.2 15.7,-10.7c0.6,-1.7 1,-3.6 1,-5.6c0,-7 -4.4,-13.1 -10.5,-15.6c-2.1,-0.9 -4.4,-1.4 -6.7,-1.4l-17.7,0l-13.6,0l26.8,-30.1l18,-20.2l31.2,0l11.5,-12.7l-50.4,0c-0.7,-3.6 -1.9,-7.2 -3.6,-10.6c-6.4,-12.2 -19.2,-19.8 -33.5,-19.8l-38.9,0l-11.5,12.7l17.7,0l32.4,0c9.5,0 18,5 22.3,13c4.3,8.2 3.6,17.9 -1.7,25.4l-10.6,12.2l-16.9,19.3l-9.4,10.7l-10.4,11.9c-0.3,0.4 -0.1,1 0.4,1l58.2,0c0.5,0 1,0.1 1.4,0.3c1.5,0.7 2.6,2.4 2.4,4.2c-0.2,2.2 -2.2,3.8 -4.4,3.8l-59.7,0c-3.2,0 -6.1,-1.5 -7.7,-4c-1.9,-3 -1.8,-6.8 0.2,-9.7l0.1,-0.2l49.6,-54.8l0.3,-0.4c3.1,-4.8 3.4,-10.7 0.7,-15.8c-2.8,-5.4 -8.1,-8.6 -14.1,-8.6l-28.1,0l-3.6,0l-11.5,12.6l43.2,0c0.5,0 2,0 2.9,1.7c0.7,1.3 0.4,2.3 0.1,2.8l-48.7,53.8l-0.4,0.5l-0.8,1.1c-5,7.1 -5.3,16.4 -0.6,23.8c0.2,0.3 0.4,0.7 0.7,1c3.9,5.4 10.2,8.3 16.8,8.3l13.5,0l-9.3,11l-9.4,10.7l8.3,0l8.3,0l49.9,0c20.9,0 38,-17 38,-38c0,-16.5 -9.5,-30.6 -24.3,-35.8l9.5,-10.4l26.9,0z" class="st1"/>
  </g>
 </g>
</svg>